<svg role="img" viewBox="0 0 24 24" xmlns="http://www.w3.org/2000/svg"><title>QloApps</title><path d="M12.428 5.874v11.092h3V5.875h-3Zm.428.428h.857v.854h-.857v-.854Zm-7.645.204C2.333 6.506 0 8.828 0 11.693s2.333 5.187 5.211 5.187a5.21 5.21 0 0 0 2.979-.929l2.181 2.174 1.201-1.158-2.197-2.153v-.002l-1.08-1.076a3.71 3.71 0 0 1-3.084 1.643 3.694 3.694 0 0 1-3.703-3.686A3.695 3.695 0 0 1 5.21 8.007c.79 0 1.524.248 2.125.668l1.078-1.074a5.202 5.202 0 0 0-3.203-1.095ZM9.6 7.12 5.21 11.35 3.36 10.123l-.546.547 2.394 3.34c.15-.294 3.335-4.538 5.285-6.89H9.6Zm4.543.035H15v.851h-.857v-.851Zm-1.288 1.28h.858v.853h-.857v-.854Zm1.288 0H15v.853h-.857v-.854Zm-4.528.482-1.105 1.1c.266.518.405 1.092.404 1.675 0 .558-.123 1.087-.346 1.56l1.114 1.108a5.141 5.141 0 0 0 .74-2.668 5.142 5.142 0 0 0-.807-2.775Zm10.528.369a3.849 3.849 0 0 0-3.857 3.84c0 2.12 1.726 3.84 3.857 3.84A3.85 3.85 0 0 0 24 13.127a3.85 3.85 0 0 0-3.857-3.84Zm-6 .427H15v.854h-.857v-.854Zm6 1.708a1.71 1.71 0 0 1 1.715 1.705c0 .942-.769 1.707-1.715 1.707a1.71 1.71 0 0 1-1.713-1.707c0-.943.766-1.705 1.713-1.705Z"/></svg>